<?xml version="1.0" encoding="UTF-8"?>
<svg xmlns="http://www.w3.org/2000/svg" width="55" height="56" viewBox="0 0 55 56" fill="none"><path d="M25.6861 25.872H19.8792C20.4027 22.9252 22.7359 20.599 25.6861 20.079V25.872ZM25.6861 34.1818C22.7255 33.6618 20.3888 31.3183 19.8758 28.3576H25.6861V34.1818ZM36.4851 28.3888H44.2091V25.9066H30.6574V28.3888C30.6574 28.3888 33.8538 28.3923 33.9717 28.3888C33.4482 31.3356 31.115 33.6653 28.1683 34.1818V20.0824C29.1494 20.2558 30.0819 20.6267 30.907 21.1779L32.689 19.396C31.3681 18.4114 29.815 17.777 28.1683 17.5655V15.0625C30.4564 15.3399 32.6023 16.2586 34.3773 17.7077L36.1419 15.9431C33.8919 14.0398 31.122 12.8611 28.1683 12.563V9.68555H25.6861V12.5283C22.6041 12.7398 19.7787 13.9081 17.5114 15.742L19.2794 17.5101C21.0822 16.1164 23.2871 15.2151 25.6861 15.014V17.569C21.3665 18.1272 17.9344 21.5558 17.3693 25.872H14.6097C14.8697 23.3481 15.9097 21.0497 17.4802 19.2192L15.7191 17.4581C13.7049 19.7427 12.391 22.6617 12.1136 25.8685H9.28125V28.3507H12.1136C12.3736 31.4639 13.6113 34.3066 15.5215 36.5635L17.2826 34.8024C15.8162 33.0066 14.8524 30.7844 14.6062 28.3507H17.3658C17.917 32.6842 21.3561 36.1267 25.6861 36.6848V39.2364C23.1796 39.0284 20.8846 38.0577 19.0368 36.5531L17.2757 38.3142C19.5811 40.2591 22.4966 41.5037 25.6861 41.7221V44.5024H28.1683V41.6839C31.2918 41.3685 34.1311 40.0684 36.3638 38.0993L34.6061 36.3416C32.8311 37.867 30.6089 38.8897 28.1683 39.1844V36.6814C32.4879 36.1232 35.92 32.6946 36.4851 28.375" fill="black"/></svg>